<svg width="16" height="16" viewBox="0 0 16 16" version="1.1" xmlns="http://www.w3.org/2000/svg" xmlns:xlink="http://www.w3.org/1999/xlink">
<g id="Canvas" fill="none">
<g id="Vector">
<path fill-rule="evenodd" clip-rule="evenodd" d="M 8 0C 3.56667 0 0 3.56667 0 8C 0 12.4333 3.56667 16 8 16C 12.4333 16 16 12.4333 16 8C 16 3.56667 12.4333 0 8 0ZM 8 14.6667C 4.33333 14.6667 1.33333 11.6667 1.33333 8C 1.33333 4.33333 4.33333 1.33333 8 1.33333C 11.6667 1.33333 14.6667 4.33333 14.6667 8C 14.6667 11.6667 11.6667 14.6667 8 14.6667ZM 10.6667 7.33333L 8.66667 7.33333L 8.66667 4C 8.66667 3.63333 8.36667 3.33333 8 3.33333C 7.63333 3.33333 7.33333 3.63333 7.33333 4L 7.33333 8C 7.33333 8.36667 7.63333 8.66667 8 8.66667L 10.6667 8.66667C 11.0333 8.66667 11.3333 8.36667 11.3333 8C 11.3333 7.63333 11.0333 7.33333 10.6667 7.33333Z" fill="#BDBDBD"/>
</g>
</g>
</svg>

