<svg width="20" height="14" viewBox="0 0 20 14" version="1.1" xmlns="http://www.w3.org/2000/svg" xmlns:xlink="http://www.w3.org/1999/xlink">
<g id="Canvas" fill="none">
<g id="Vector">
<path fill-rule="evenodd" clip-rule="evenodd" d="M 16.6736 10.0435C 16.1746 9.78261 14.8856 9.08696 13.8461 8.56522L 13.5135 7.56521C 13.9709 7.26086 14.3035 6.78261 14.3451 6.17392L 14.553 4.47827C 14.7193 3.08696 13.8046 1.78261 12.474 1.78261C 11.1435 1.78261 10.2703 3.08696 10.4366 4.47827L 10.6445 6.17392C 10.7277 6.78261 11.0603 7.26086 11.5177 7.56521L 11.1851 8.56522C 11.1435 8.6087 11.0603 8.65217 10.9772 8.65217C 12.1414 9.26086 13.3472 9.91304 13.8878 10.1739C 15.0104 10.7826 15.0104 11.913 15.0104 11.913L 15.0104 12.2174L 17.5052 12.2174L 17.5052 11.3478C 17.5052 11.3478 17.5052 10.4783 16.6736 10.0435ZM 12.2246 11.0435C 11.5593 10.6956 9.81291 9.7826 8.48235 9.08695L 8.06655 7.73914C 8.64867 7.34783 9.10603 6.69565 9.18919 5.86956L 9.43866 3.6087C 9.64656 1.73914 8.44075 -2.6537e-06 6.69439 -2.6537e-06C 4.94803 -2.6537e-06 3.74221 1.73914 3.95011 3.6087L 4.19958 5.86956C 4.28274 6.65217 4.74013 7.30435 5.32225 7.73914L 4.90645 9.08695C 3.53431 9.7826 1.78795 10.6956 1.16425 11.0435C 0.0831652 11.6087 1.01514e-05 12.8261 1.01514e-05 12.8261L 1.01514e-05 14L 13.3056 14L 13.3056 12.8261C 13.3472 12.7826 13.3472 11.6522 12.2246 11.0435ZM 19.4179 9.04348C 19.0852 8.86957 18.212 8.43478 17.5468 8.04348L 17.3389 7.3913C 17.6299 7.17391 17.8794 6.86956 17.921 6.47826L 18.0458 5.34783C 18.1705 4.43479 17.5468 3.56522 16.6736 3.56522C 15.8004 3.56522 15.1767 4.43479 15.3014 5.34783L 15.4262 6.47826C 15.4678 6.86956 15.6757 7.21739 16.0083 7.3913L 15.842 7.86957C 16.7983 8.34783 17.8794 8.95652 18.3368 9.17391C 19.1684 9.6087 19.1684 10.4783 19.1684 10.4783L 20 10.4783L 20 9.91305C 20 9.91305 20 9.30435 19.4179 9.04348Z" fill="#E0E0E0"/>
</g>
</g>
</svg>

