<svg width="20" height="18" viewBox="0 0 20 18" fill="none" xmlns="http://www.w3.org/2000/svg">
<path fill-rule="evenodd" clip-rule="evenodd" d="M4.74014 3.77561C6.02912 2.63415 7.56757 2.01951 9.14761 1.84391V2.67805C9.14761 3.16098 9.52183 3.5561 9.97921 3.5561C10.4366 3.5561 10.8108 3.16098 10.8108 2.67805V1.84391C11.8087 1.93171 12.8067 2.23903 13.7214 2.72195L15.1351 1.53658C13.6383 0.570729 11.8919 -2.67959e-06 9.97921 -2.67959e-06C4.44906 -2.67959e-06 0 4.69756 0 10.5366C0 13.4341 1.12266 16.0683 2.9106 18L4.07484 16.7707C2.66112 15.2781 1.8711 13.3902 1.6632 11.4585H2.45323C2.91061 11.4585 3.28483 11.0634 3.28483 10.5805C3.28483 10.0976 2.91061 9.70244 2.45323 9.70244H1.6632C1.82952 8.03415 2.45323 6.40976 3.49273 5.00488L4.03327 5.57561C4.36591 5.92683 4.86486 5.92683 5.19751 5.57561C5.53015 5.22439 5.53015 4.69756 5.19751 4.34634L4.74014 3.77561ZM17.422 6.62927C17.8794 7.59512 18.1705 8.64878 18.2536 9.70244H17.4636C17.0062 9.70244 16.632 10.0976 16.632 10.5805C16.632 11.0634 17.0062 11.4585 17.4636 11.4585H18.2536C18.0873 13.3902 17.2973 15.2781 15.8836 16.7707L17.0478 18C18.8358 16.1122 19.9584 13.478 19.9584 10.5366C19.9584 8.56097 19.4179 6.67317 18.5031 5.09268L17.422 6.62927ZM10.9355 7.46341C9.89604 8.34146 9.10603 9.0439 8.81497 9.35122C8.14969 10.0537 8.14969 11.1512 8.81497 11.8537C9.48026 12.5561 10.5198 12.5561 11.185 11.8537C11.4761 11.5463 12.0998 10.7122 12.9314 9.65853L20 0.0878076L10.9355 7.46341Z" fill="white" fill-opacity="0.7"/>
</svg>
