<svg width="24" height="24" viewBox="0 0 24 24" version="1.1" xmlns="http://www.w3.org/2000/svg" xmlns:xlink="http://www.w3.org/1999/xlink">
<g id="Canvas" fill="none">
<g id="Vector">
<path fill-rule="evenodd" clip-rule="evenodd" d="M 20.3117 4.00835C 20.2078 4.00835 20.1039 4.00835 20 4.00835C 19.7403 2.3048 18.2338 1.00209 16.4156 1.00209C 15.7922 1.00209 15.2208 1.1524 14.7013 1.45303C 14.026 0.601253 12.987 0 11.7922 0C 10.2857 0 8.98702 0.901879 8.41559 2.2547C 8 2.10438 7.58442 2.00418 7.11689 2.00418C 5.14286 2.00418 3.53247 3.55741 3.53247 5.51148C 3.53247 5.91232 3.68831 6.56367 3.68831 6.46347L 5.50649 12.1754C 4.93507 12.0752 4.46753 11.9749 4.10389 11.9749C 1.71428 11.9749 -3.17066e-06 13.6785 -3.17066e-06 15.9833C -3.17066e-06 17.0856 0.935062 17.9875 2.07792 17.9875L 3.42857 17.9875L 6.38962 20.2923L 6.4935 20.5428L 7.94806 24L 18.1299 24L 19.5325 18.5887L 23.6883 8.81837C 23.6883 8.86847 24 8.21712 24 7.41545C 23.9481 5.56159 22.3377 4.00835 20.3117 4.00835ZM 22.026 8.0167L 17.7143 18.0376L 16.6753 22.0459L 9.4026 22.0459L 8.2078 19.1399L 4.20779 16.0334C 4.20779 16.0334 3.06493 16.0334 2.12987 16.0334C 2.12987 15.0313 2.75325 14.0292 4.20779 14.0292C 5.09091 14.0292 7.11688 14.6305 7.84416 14.881L 7.84416 12.2756L 5.81818 5.91232C 5.76624 5.81211 5.76623 5.6618 5.76623 5.51148C 5.76623 4.65971 6.44156 4.00835 7.32468 4.00835C 8.05195 4.00835 8.62337 4.45929 8.83117 5.11065L 10.961 10.5219L 10.4416 3.60752C 10.4416 3.60752 10.4416 3.55741 10.4416 3.50731C 10.4416 2.65553 11.1169 2.00418 12 2.00418C 12.8312 2.00418 13.5065 2.60543 13.5584 3.4071L 14.0779 10.5219L 15.1169 4.25887C 15.2208 3.55741 15.8961 3.00626 16.6234 3.00626C 17.5065 3.00626 18.1818 3.65762 18.1818 4.50939C 18.1818 4.70981 18.1818 4.75992 18.1818 4.75992L 17.1948 11.524L 19.1169 7.01461C 19.3247 6.41336 19.8961 6.01253 20.5714 6.01253C 21.4545 6.01253 22.1299 6.66388 22.1299 7.51566C 22.1299 7.66597 22.0779 7.86639 22.026 8.0167Z" fill="#E0E0E0"/>
</g>
</g>
</svg>

