<svg xmlns="http://www.w3.org/2000/svg" width="32" height="28" fill="none"><path fill="#EB5757" fill-rule="evenodd" d="M31.3495 21.56L19.3662 1.95999C18.6256 0.769991 17.3465 0 16 0C14.6536 0 13.3745 0.699991 12.6339 1.95999L0.650447 21.56C-0.157424 22.82 -0.224714 24.5 0.515835 25.83C1.18906 27.16 2.53548 28 4.01658 28H27.9834C29.4645 28 30.811 27.16 31.4842 25.83C32.2248 24.43 32.1574 22.82 31.3495 21.56ZM16.1346 23.8C15.3941 23.8 14.7882 23.17 14.7882 22.4C14.7882 21.63 15.3941 21 16.1346 21C16.8752 21 17.4811 21.63 17.4811 22.4C17.4811 23.17 16.8752 23.8 16.1346 23.8ZM17.4811 18.2C17.4811 18.97 16.8752 19.6 16.1346 19.6C15.3941 19.6 14.7882 18.97 14.7882 18.2V8.4C14.7882 7.63 15.3941 7 16.1346 7C16.8752 7 17.4811 7.63 17.4811 8.4V18.2Z" clip-rule="evenodd"/></svg>