<svg width="96" height="96" viewBox="0 0 96 96" version="1.1" xmlns="http://www.w3.org/2000/svg" xmlns:xlink="http://www.w3.org/1999/xlink">
<g id="Canvas" fill="none">
<g id="Vector">
<path fill-rule="evenodd" clip-rule="evenodd" d="M 87.6962 51.6265C 87.8987 49.197 87.8987 46.565 87.6962 43.933L 95.595 40.0864C 94.3798 32.3931 91.3418 25.3071 87.0886 19.4358L 78.7849 22.2703C 77.1646 20.2457 75.3418 18.4236 73.3165 16.8039L 76.1518 8.50313C 70.0759 4.04908 62.9874 1.21479 55.4937 4.94279e-05L 51.6456 7.89578C 49.2152 7.69333 46.5823 7.69333 43.9494 7.89578L 40.1012 4.94279e-05C 32.405 1.21479 25.3164 4.25161 19.443 8.70566L 22.2785 17.0063C 20.4557 18.626 18.633 20.4482 17.0127 22.2703L 8.70884 19.4358C 4.25314 25.5095 1.21519 32.5955 0 40.0864L 7.89878 43.933C 7.69625 46.3625 7.69625 48.9946 7.89878 51.6265L 0 55.4731C 1.21519 63.1665 4.25319 70.2525 8.50635 76.1237L 16.8101 73.2893C 18.4304 75.3138 20.2532 77.136 22.2785 78.7556L 19.443 87.0564C 25.3164 91.308 32.405 94.3447 39.6962 95.5595L 39.6962 70.4549C 36.4556 69.2402 33.2151 67.4181 30.5822 64.7862C 21.0632 55.2707 21.0632 39.884 30.5822 30.3685C 32.2025 28.7489 33.8227 27.5341 35.6455 26.5218L 35.6455 45.9576L 47.7974 51.8289L 59.9493 45.9576L 59.9493 26.7242C 61.7721 27.7365 63.3924 28.9513 65.0126 30.571C 74.5316 40.0864 74.5316 55.4731 65.0126 64.9886C 62.3797 67.6205 59.3418 69.4426 56.1013 70.6573L 56.1013 95.762C 63.7975 94.5473 70.6835 91.5104 76.5569 87.2588L 73.7216 78.9581C 75.5443 77.3385 77.3671 75.5163 78.9873 73.6942L 87.2911 76.5286C 91.7468 70.4549 94.7849 63.3689 96 55.878L 87.6962 51.6265Z" fill="url(#paint0_linear)"/>
</g>
</g>
<defs>

<linearGradient id="paint0_linear" x2="1" gradientUnits="userSpaceOnUse" gradientTransform="matrix(148.145 139.653 -140 102.7 70 -59.3299)">
<stop stop-color="#2F80ED"/>
<stop offset="1" stop-color="#EB5757"/>
</linearGradient>

</defs>
</svg>

