<svg xmlns="http://www.w3.org/2000/svg" width="16" height="16" fill="none"><path fill="#4F4F4F" fill-rule="evenodd" d="M8 0C3.56667 0 0 3.56667 0 8C0 12.4333 3.56667 16 8 16C12.4333 16 16 12.4333 16 8C16 3.56667 12.4333 0 8 0ZM8 12C7.63333 12 7.33333 11.7 7.33333 11.3333C7.33333 10.9667 7.63333 10.6667 8 10.6667C8.36667 10.6667 8.66667 10.9667 8.66667 11.3333C8.66667 11.7 8.36667 12 8 12ZM8.66667 9.23332V9.33333C8.66667 9.7 8.36667 10 8 10C7.63333 10 7.33333 9.7 7.33333 9.33333V8.66667C7.33333 8.3 7.63333 8 8 8C8.73333 8 9.33333 7.4 9.33333 6.66667C9.33333 5.93333 8.73333 5.33333 8 5.33333C7.26667 5.33333 6.66667 5.93333 6.66667 6.66667C6.66667 7.03333 6.36667 7.33333 6 7.33333C5.63333 7.33333 5.33333 7.03333 5.33333 6.66667C5.33333 5.2 6.53333 4 8 4C9.46667 4 10.6667 5.2 10.6667 6.66667C10.6667 7.9 9.8 8.93332 8.66667 9.23332Z" clip-rule="evenodd"/></svg>