<svg width="24" height="24" viewBox="0 0 24 24" version="1.1" xmlns="http://www.w3.org/2000/svg" xmlns:xlink="http://www.w3.org/1999/xlink">
<g id="Canvas" fill="none">
<g id="Vector">
<path fill-rule="evenodd" clip-rule="evenodd" d="M 3.6 9.6L 1.2 9.6C 0.54 9.6 0 10.14 0 10.8L 0 13.2C 0 13.86 0.54 14.4 1.2 14.4L 3.6 14.4C 4.26 14.4 4.8 13.86 4.8 13.2L 4.8 10.8C 4.8 10.14 4.26 9.6 3.6 9.6ZM 3.6 0L 1.2 0C 0.54 0 0 0.54 0 1.2L 0 3.6C 0 4.26 0.54 4.8 1.2 4.8L 3.6 4.8C 4.26 4.8 4.8 4.26 4.8 3.6L 4.8 1.2C 4.8 0.54 4.26 0 3.6 0ZM 3.6 19.2L 1.2 19.2C 0.54 19.2 0 19.74 0 20.4L 0 22.8C 0 23.46 0.54 24 1.2 24L 3.6 24C 4.26 24 4.8 23.46 4.8 22.8L 4.8 20.4C 4.8 19.74 4.26 19.2 3.6 19.2ZM 13.2 0L 10.8 0C 10.14 0 9.6 0.54 9.6 1.2L 9.6 3.6C 9.6 4.26 10.14 4.8 10.8 4.8L 13.2 4.8C 13.86 4.8 14.4 4.26 14.4 3.6L 14.4 1.2C 14.4 0.54 13.86 0 13.2 0ZM 22.8 0L 20.4 0C 19.74 0 19.2 0.54 19.2 1.2L 19.2 3.6C 19.2 4.26 19.74 4.8 20.4 4.8L 22.8 4.8C 23.46 4.8 24 4.26 24 3.6L 24 1.2C 24 0.54 23.46 0 22.8 0ZM 13.2 9.6L 10.8 9.6C 10.14 9.6 9.6 10.14 9.6 10.8L 9.6 13.2C 9.6 13.86 10.14 14.4 10.8 14.4L 13.2 14.4C 13.86 14.4 14.4 13.86 14.4 13.2L 14.4 10.8C 14.4 10.14 13.86 9.6 13.2 9.6ZM 22.8 9.6L 20.4 9.6C 19.74 9.6 19.2 10.14 19.2 10.8L 19.2 13.2C 19.2 13.86 19.74 14.4 20.4 14.4L 22.8 14.4C 23.46 14.4 24 13.86 24 13.2L 24 10.8C 24 10.14 23.46 9.6 22.8 9.6ZM 13.2 19.2L 10.8 19.2C 10.14 19.2 9.6 19.74 9.6 20.4L 9.6 22.8C 9.6 23.46 10.14 24 10.8 24L 13.2 24C 13.86 24 14.4 23.46 14.4 22.8L 14.4 20.4C 14.4 19.74 13.86 19.2 13.2 19.2ZM 22.8 19.2L 20.4 19.2C 19.74 19.2 19.2 19.74 19.2 20.4L 19.2 22.8C 19.2 23.46 19.74 24 20.4 24L 22.8 24C 23.46 24 24 23.46 24 22.8L 24 20.4C 24 19.74 23.46 19.2 22.8 19.2Z" fill="url(#paint0_linear)"/>
</g>
</g>
<defs>

<linearGradient id="paint0_linear" x2="1" gradientUnits="userSpaceOnUse" gradientTransform="matrix(40 33 -33 40 9 -24)">
<stop stop-color="#2F80ED"/>
<stop offset="1" stop-color="#EB5757"/>
</linearGradient>

</defs>
</svg>

