<svg width="24" height="25" viewBox="0 0 24 25" version="1.1" xmlns="http://www.w3.org/2000/svg" xmlns:xlink="http://www.w3.org/1999/xlink">
<g id="Canvas" fill="none">
<g id="Vector">
<path fill-rule="evenodd" clip-rule="evenodd" d="M 22.0169 13.1454C 22.0678 12.5268 22.0678 11.8566 22.0169 11.1864L 24 10.207C 23.6949 8.24807 22.9322 6.4438 21.8644 4.94884L 19.7797 5.67056C 19.3729 5.15505 18.9153 4.69109 18.4068 4.27869L 19.1186 2.1651C 17.5932 1.031 15.8136 0.309315 13.9322 1.25856e-05L 12.9661 2.01046C 12.3559 1.95891 11.6949 1.95891 11.0339 2.01046L 10.0678 1.25856e-05C 8.13559 0.309315 6.35594 1.08256 4.88136 2.21667L 5.59322 4.33023C 5.13559 4.74263 4.67796 5.2066 4.27118 5.67056L 2.18644 4.94884C 1.0678 6.49535 0.305085 8.29962 0 10.207L 1.98305 11.1864C 1.9322 11.805 1.9322 12.4752 1.98305 13.1454L 0 14.1248C 0.305085 16.0837 1.0678 17.888 2.13559 19.383L 4.22034 18.6612C 4.62712 19.1767 5.08475 19.6407 5.59322 20.0531L 4.88136 22.1667C 6.40678 23.3008 8.18643 24.0225 10.0678 24.3318L 11.0339 22.3213C 11.6441 22.3729 12.3051 22.3729 12.9661 22.3213L 13.9322 24.3318C 15.8644 24.0225 17.6441 23.2492 19.1186 22.1151L 18.4068 20.0016C 18.8644 19.5892 19.322 19.1252 19.7288 18.6612L 21.8136 19.383C 22.9322 17.8364 23.6949 16.0322 24 14.1248L 22.0169 13.1454ZM 14.8475 15.1043L 11.9492 16.2899L 9.10169 15.1043L 7.88136 12.1659L 9.05084 9.22752L 11.8983 8.04187L 14.7458 9.22752L 15.9152 12.1659L 14.8475 15.1043Z" transform="translate(0 0.414795)" fill="url(#paint0_linear)"/>
</g>
</g>
<defs>

<linearGradient id="paint0_linear" x2="1" gradientUnits="userSpaceOnUse" gradientTransform="matrix(40 33.4562 -33 40.553 9 -24.3318)">
<stop stop-color="#2F80ED"/>
<stop offset="1" stop-color="#EB5757"/>
</linearGradient>

</defs>
</svg>

