<svg width="26" height="30" viewBox="0 0 26 30" version="1.1" xmlns="http://www.w3.org/2000/svg" xmlns:xlink="http://www.w3.org/1999/xlink">
<g id="Canvas" fill="none">
<g id="Vector">
<path d="M 11.2009 6.87933C 10.8719 6.91375 10.9855 7.21076 10.8023 7.21718C 10.6219 7.22368 10.6587 6.83904 11.2009 6.87933ZM 12.1929 6.92833C 12.5131 6.84761 12.5148 7.16397 12.6897 7.1064C 12.8597 7.05047 12.687 6.70447 12.1929 6.92833ZM 23.2296 27.6493C 22.2404 28.1373 20.9501 29.2215 20.4676 29.6707C 20.1128 30.0038 18.6262 30.169 17.8004 29.752C 16.8216 29.2576 17.3409 28.486 15.8296 28.4495C 15.0784 28.4323 14.348 28.4258 13.616 28.4344C 12.9684 28.443 12.3213 28.4624 11.6611 28.4963C 9.39195 28.5156 9.16992 29.9715 7.72449 29.9182C 6.73522 29.8822 5.48671 29.1166 3.34263 28.6759C 1.83583 28.3681 0.389238 28.295 0.0794046 27.6408C -0.229919 26.9887 0.461091 26.2575 0.5071 25.6075C 0.563519 24.7602 -0.147074 23.6077 0.378173 23.1612C 0.811911 22.7915 1.76223 23.0627 2.37476 22.727C 3.02617 22.3724 3.28774 22.077 3.28774 21.2985C 3.52739 22.0937 3.27682 22.7527 2.73832 23.0756C 2.41808 23.2655 1.82258 23.3661 1.33293 23.3172C 0.945206 23.2812 0.705041 23.343 0.587179 23.4878C 0.436921 23.6761 0.485188 24.0054 0.67432 24.4439C 0.864617 24.8824 1.09328 25.1605 1.06256 25.697C 1.03184 26.2339 0.430297 26.8714 0.526319 27.3228C 0.563592 27.4961 0.737364 27.6408 1.15414 27.7565C 1.84508 27.947 3.0783 28.1197 4.29513 28.4107C 5.64789 28.7363 7.04454 29.3496 7.91253 29.2318C 10.5079 28.8772 9.02789 26.1462 8.60791 25.4968C 6.41723 22.1131 4.96853 19.8981 3.80876 20.7772C 3.50606 21.0059 3.49456 20.2015 3.50774 19.8917C 3.55768 18.7796 4.13345 18.3905 4.4756 17.5249C 5.11609 15.9038 5.61557 14.0471 6.60651 13.0872C 7.34404 12.1613 8.49448 10.6371 8.71492 9.8327C 8.52957 8.08362 8.47257 6.24247 8.44396 4.63003C 8.41601 2.91481 8.69293 1.40995 10.667 0.357586C 11.1485 0.100943 11.7741 0.00679937 12.4371 0.000370775C 13.6225 -0.0125578 14.9298 0.312944 15.7649 0.920374C 17.0964 1.88881 17.9331 3.95003 17.8355 5.43232C 17.7565 6.57347 17.966 7.76947 18.3389 8.99891C 18.7852 10.4591 19.4915 11.4856 20.6134 12.6531C 21.9656 14.0601 23.0179 16.832 23.3141 18.5876C 23.5932 20.2275 23.2296 21.2412 22.8628 21.2922C 22.3167 21.3713 21.9761 23.0736 20.2652 22.9945C 19.1735 22.9429 19.0665 22.3102 18.7639 21.7711C 18.2775 20.9092 17.7829 21.1787 17.5843 22.0772C 17.4818 22.5367 17.5564 23.1957 17.7066 23.7085C 18.0115 24.7588 17.9068 25.7551 17.7248 26.963C 17.3755 29.2813 19.3759 29.7198 20.7253 28.618C 22.0568 27.5301 22.3419 27.3568 24.027 26.7925C 26.568 25.9386 25.7143 25.1838 24.3477 24.7329C 23.1228 24.3288 23.0723 22.2977 23.511 21.9147C 23.6086 24.0958 24.7656 24.4122 25.2564 24.7098C 27.3586 25.99 24.4622 27.0403 23.2296 27.6493ZM 17.5712 21.2603C 17.8025 20.9908 18.0751 20.9607 18.4342 20.9542C 18.489 19.6247 20.5985 19.7227 21.2895 20.2789C 21.2895 19.9707 20.6265 19.6947 20.3611 19.5644C 20.8211 18.0634 20.6051 17.4602 20.3003 16.0425C 20.0688 14.9606 19.0642 13.5046 18.2774 13.049C 18.4759 13.2195 18.8532 13.7161 19.2518 14.4446C 19.9384 15.6987 20.6161 17.5522 20.1648 19.1087C 19.991 19.7032 19.594 19.7781 19.3215 19.8082C 18.1118 19.9319 18.8229 18.4055 18.3207 16.3029C 17.7614 13.9657 17.1878 13.7904 17.0437 13.6069C 16.3505 10.566 15.5795 10.8695 15.3613 9.72134C 15.1656 8.70548 16.2638 7.86519 14.7707 7.58104C 14.3156 7.49333 13.6642 7.04033 13.4043 7.00804C 13.1471 6.97361 13.0209 5.33153 13.9646 5.26482C 14.9083 5.19646 15.0887 6.31075 14.9034 6.74925C 14.6352 7.18347 14.9232 7.3459 15.3898 7.20447C 15.7715 7.08933 15.5253 6.11382 15.6163 5.96918C 15.3701 4.57246 14.7757 4.37124 14.1566 4.25396C 11.8069 4.43096 12.8619 6.98447 12.6239 6.73854C 12.2911 6.39204 11.2903 6.71918 11.2953 6.49697C 11.3167 5.19489 10.872 4.4401 10.2594 4.42446C 9.5773 4.4051 9.296 5.34239 9.2548 5.87011C 9.21585 6.37697 9.56194 7.43311 9.81463 7.3524C 9.98024 7.29861 10.2637 6.97204 9.96052 6.97361C 9.80371 6.97575 9.56682 6.61475 9.54214 6.17568C 9.51855 5.73775 9.68198 5.29711 10.2616 5.32025C 10.9416 5.34611 10.9349 6.64918 10.8609 6.69975C 10.6432 6.84768 10.3641 7.13447 10.334 7.1834C 10.1179 7.53854 9.68417 7.62619 9.52518 7.78226C 9.22248 8.07919 9.16103 8.4149 9.38802 8.54355C 10.1657 8.98148 9.91283 9.46891 11.0007 9.51412C 11.7152 9.54162 12.2532 9.40491 12.7396 9.25912C 13.1185 9.14669 14.3352 8.89219 14.5919 8.45376C 14.7032 8.26762 14.843 8.26112 14.9362 8.3144C 15.0996 8.4069 15.1347 8.71683 14.7141 8.82769C 14.1125 8.98805 13.505 9.30276 12.9725 9.51205C 12.4411 9.72348 12.2712 9.80477 11.7699 9.89512C 10.6403 10.0936 9.80633 9.49484 10.5642 10.2136C 10.8153 10.4531 11.0571 10.6026 11.7069 10.5768C 13.1299 10.5214 14.7244 8.8449 14.8818 9.59548C 14.9147 9.74934 14.4311 9.95862 14.0539 10.1426C 12.7198 10.7867 11.7804 12.0586 10.9261 11.6184C 10.1617 11.223 9.40113 9.36248 9.41423 10.1959C 9.43563 11.4812 7.68743 12.6251 8.49186 14.088C 7.97099 14.2273 6.78319 16.6861 6.6127 17.9666C 6.51951 18.6918 6.68353 19.6027 6.50634 20.1117C 6.24914 20.8472 5.08122 19.4107 5.45402 17.6502C 5.521 17.3403 5.46451 17.2747 5.37999 17.4242C 4.90519 18.2474 5.1661 19.3957 5.54066 20.2016C 5.70467 20.5502 6.08796 20.7041 6.37137 21.0145C 6.98332 21.686 9.32483 23.39 9.74925 23.7983C 10.2635 24.2943 10.1194 25.4323 9.02592 25.541C 9.58633 26.5783 10.1325 26.6767 10.1242 28.3726C 10.7582 28.0385 10.5032 27.3078 10.2378 26.8263C 10.0525 26.4971 9.81011 26.3475 9.86275 26.2706C 9.90228 26.2125 10.2285 25.937 10.4248 26.1528C 11.0023 26.7877 12.0924 26.9013 13.2647 26.7581C 14.4349 26.6123 15.6901 26.211 16.2702 25.2958C 16.5422 24.8658 16.7386 24.7136 16.8646 24.7889C 16.9891 24.8658 17.0434 25.1693 17.0302 25.6567C 17.0154 26.1979 16.7846 26.7601 16.6409 27.2094C 16.479 27.7184 16.4292 28.0794 16.9348 28.0988C 17.085 27.1577 17.3488 26.2318 17.425 25.2957C 17.5102 24.2307 16.7239 22.2481 17.5712 21.2603ZM 10.3988 6.13961C 10.3598 6.34947 10.3752 6.48018 10.5233 6.48018C 10.5473 6.48018 10.5731 6.47532 10.5824 6.42211C 10.6537 6.00511 10.4339 5.70168 10.3444 5.67746C 10.1355 5.62632 10.1618 5.91904 10.2703 5.89589C 10.3362 5.88289 10.425 5.98997 10.3988 6.13961ZM 14.2613 5.56661C 14.0474 5.58596 14.1088 5.69032 14.2152 5.72046C 14.3545 5.76132 14.4856 5.99375 14.5157 6.24668C 14.5179 6.26982 14.6944 6.21011 14.6944 6.15468C 14.7077 5.75004 14.3545 5.55846 14.2613 5.56661Z" fill="url(#paint0_linear)"/>
</g>
</g>
<defs>

<linearGradient id="paint0_linear" x2="1" gradientUnits="userSpaceOnUse" gradientTransform="matrix(43.3333 41.25 -35.75 50 9.75 -30)">
<stop stop-color="#2F80ED"/>
<stop offset="1" stop-color="#EB5757"/>
</linearGradient>

</defs>
</svg>

