<svg width="23" height="30" viewBox="0 0 23 30" version="1.1" xmlns="http://www.w3.org/2000/svg" xmlns:xlink="http://www.w3.org/1999/xlink">
<g id="Canvas" fill="none">
<g id="Vector">
<path d="M 15.8076 4.55939C 16.9167 3.35092 17.6669 1.67312 17.4617 0C 15.8638 0.0580813 13.9271 0.954595 12.7802 2.16306C 11.7521 3.23288 10.8519 4.94253 11.0921 6.58286C 12.8751 6.70558 14.6966 5.76598 15.8076 4.55939ZM 19.2105 16.1138C 19.1765 12.3629 22.1283 10.5614 22.259 10.4743C 20.5995 7.92717 18.0148 7.57868 17.0944 7.53933C 14.8936 7.3042 12.8033 8.89581 11.6858 8.89581C 10.573 8.89581 8.85177 7.57025 7.02652 7.60585C 4.62691 7.64613 2.41599 9.06818 1.18351 11.3221C -1.30907 15.8562 0.544715 22.573 2.97378 26.2509C 4.16116 28.0514 5.57497 30.0711 7.43152 29.9981C 9.22363 29.925 9.89924 28.7849 12.0614 28.7849C 14.2244 28.7849 14.8301 29.9981 16.7225 29.9615C 18.6481 29.925 19.8668 28.1264 21.044 26.3202C 22.4063 24.2321 22.9678 22.2105 23 22.1084C 22.9586 22.084 19.2501 20.5992 19.2105 16.1138Z" fill="url(#paint0_linear)"/>
</g>
</g>
<defs>

<linearGradient id="paint0_linear" x2="1" gradientUnits="userSpaceOnUse" gradientTransform="matrix(38.3333 41.25 -31.625 50 8.625 -30)">
<stop stop-color="#2F80ED"/>
<stop offset="1" stop-color="#EB5757"/>
</linearGradient>

</defs>
</svg>

