<svg width="24" height="25" viewBox="0 0 24 25" version="1.1" xmlns="http://www.w3.org/2000/svg" xmlns:xlink="http://www.w3.org/1999/xlink">
<g id="Canvas" fill="none">
<g id="Vector">
<path fill-rule="evenodd" clip-rule="evenodd" d="M 0.601248 20.8414C -0.200416 21.6508 -0.200416 22.9154 0.601248 23.7248C 1.40291 24.5341 2.65551 24.5341 3.45717 23.7248C 4.25884 22.9154 4.25884 21.6508 3.45717 20.8414C 2.65551 20.032 1.35281 20.032 0.601248 20.8414ZM 2.00416 14.164L 2.00416 16.1875C 3.50728 16.1875 5.0605 16.7945 6.21289 17.958C 7.36528 19.1215 7.96653 20.6896 7.96653 22.2578L 9.97069 22.2578C 9.97069 20.1838 9.16903 18.1097 7.61581 16.5416C 6.11269 14.9228 4.05842 14.164 2.00416 14.164ZM 2.00416 7.08202L 2.00416 9.10545C 5.31102 9.10545 8.66799 10.4207 11.1732 12.95C 13.7285 15.5299 14.9811 18.8685 14.9811 22.2578L 16.9853 22.2578C 16.9853 18.3627 15.5322 14.4675 12.5761 11.5336C 9.67007 8.549 5.86217 7.08202 2.00416 7.08202ZM 2.00416 0L 2.00416 1.97285C 7.11477 1.97285 12.2254 3.9457 16.1335 7.8914C 20.0416 11.8371 21.9956 17.0474 21.9956 22.2072L 23.9998 22.2072C 24.0499 9.96541 14.1794 0 2.00416 0Z" transform="translate(0 0.428467)" fill="url(#paint0_linear)"/>
</g>
</g>
<defs>

<linearGradient id="paint0_linear" x2="1" gradientUnits="userSpaceOnUse" gradientTransform="matrix(40 33.4562 -33 40.553 9 -24.3318)">
<stop stop-color="#2F80ED"/>
<stop offset="1" stop-color="#EB5757"/>
</linearGradient>

</defs>
</svg>

