<svg width="78" height="94" viewBox="0 0 78 94" version="1.1" xmlns="http://www.w3.org/2000/svg" xmlns:xlink="http://www.w3.org/1999/xlink">
<g id="Canvas" fill="none">
<g id="Vector">
<path fill-rule="evenodd" clip-rule="evenodd" d="M 31.2 62.6667C 48.36 62.6667 62.4 48.5667 62.4 31.3333C 62.4 14.1 48.36 0 31.2 0C 14.04 0 0 14.1 0 31.3333C 0 48.5667 14.04 62.6667 31.2 62.6667ZM 78 31.3333C 78 19.3875 73.515 8.42085 66.105 0.195845L 60.645 5.67915C 66.4949 12.5333 70.2 21.5417 70.2 31.3333C 70.2 52.875 52.65 70.5 31.2 70.5C 21.45 70.5 12.48 66.7792 5.65505 60.9042L 0.194952 66.3875C 7.60495 73.0458 16.965 77.1583 27.3 78.1375L 27.3 86.1667L 11.7 86.1667C 9.555 86.1667 7.8 87.9292 7.8 90.0833C 7.8 92.2375 9.555 94 11.7 94L 50.7 94C 52.845 94 54.6 92.2375 54.6 90.0833C 54.6 87.9292 52.845 86.1667 50.7 86.1667L 35.1 86.1667L 35.1 78.1375C 59.085 76.1792 78 56.0083 78 31.3333Z" fill="url(#paint0_linear)"/>
</g>
</g>
<defs>

<linearGradient id="paint0_linear" x2="1" gradientUnits="userSpaceOnUse" gradientTransform="matrix(120.368 137.083 -113.75 100.81 56.875 -58.2383)">
<stop stop-color="#2F80ED"/>
<stop offset="1" stop-color="#EB5757"/>
</linearGradient>

</defs>
</svg>

