<svg xmlns="http://www.w3.org/2000/svg" width="11" height="16" fill="none"><path fill="#fff" fill-rule="evenodd" d="M8.9375 6.66667V3.33333C8.9375 1.5 7.39062 0 5.5 0C3.60938 0 2.0625 1.5 2.0625 3.33333V6.66667H0V16H11V6.66667H8.9375ZM6.875 14H4.125L4.84687 11.1667C4.39999 10.9333 4.125 10.5 4.125 10C4.125 9.26667 4.74375 8.66667 5.5 8.66667C6.25625 8.66667 6.875 9.26667 6.875 10C6.875 10.5 6.56563 10.9333 6.15313 11.1667L6.875 14ZM7.5625 6.66667H3.4375V3.33333C3.4375 2.23333 4.36562 1.33333 5.5 1.33333C6.63438 1.33333 7.5625 2.23333 7.5625 3.33333V6.66667Z" clip-rule="evenodd"/></svg>