<svg xmlns="http://www.w3.org/2000/svg" width="14" height="14" fill="none"><path fill="#F2994A" fill-opacity=".5" fill-rule="evenodd" d="M7 0C3.12083 0 0 3.12083 0 7C0 10.8792 3.12083 14 7 14C10.8792 14 14 10.8792 14 7C14 3.12083 10.8792 0 7 0ZM7 10.5C6.67917 10.5 6.41667 10.2375 6.41667 9.91667C6.41667 9.59583 6.67917 9.33333 7 9.33333C7.32083 9.33333 7.58333 9.59583 7.58333 9.91667C7.58333 10.2375 7.32083 10.5 7 10.5ZM7.58333 8.16667C7.58333 8.4875 7.32083 8.75 7 8.75C6.67917 8.75 6.41667 8.4875 6.41667 8.16667V4.08333C6.41667 3.7625 6.67917 3.5 7 3.5C7.32083 3.5 7.58333 3.7625 7.58333 4.08333V8.16667Z" clip-rule="evenodd"/></svg>