<svg width="24" height="16" viewBox="0 0 24 16" version="1.1" xmlns="http://www.w3.org/2000/svg" xmlns:xlink="http://www.w3.org/1999/xlink">
<path fill-rule="evenodd" clip-rule="evenodd" d="M 23 7L 1 7C 0.45 7 0 7.45 0 8C 0 8.55 0.45 9 1 9L 23 9C 23.55 9 24 8.55 24 8C 24 7.45 23.55 7 23 7ZM 1 2L 23 2C 23.55 2 24 1.55 24 1C 24 0.45 23.55 0 23 0L 1 0C 0.45 0 0 0.45 0 1C 0 1.55 0.45 2 1 2ZM 23 14L 1 14C 0.45 14 0 14.45 0 15C 0 15.55 0.45 16 1 16L 23 16C 23.55 16 24 15.55 24 15C 24 14.45 23.55 14 23 14Z"/>
</svg>

