<svg  viewBox="0 0 99 71" version="1.1" xmlns="http://www.w3.org/2000/svg" xmlns:xlink="http://www.w3.org/1999/xlink">
<g id="Canvas">
<g id="Group">
<g id="Rectangle 3">
<rect width="97.6341" height="18.0833" rx="4" transform="translate(0.767578 52.3604)" />
</g>
<g id="Ellipse">
<ellipse cx="3.64987" cy="3.44444" rx="3.64987" ry="3.44444" transform="translate(8.98096 58.3887)" fill="white"/>
</g>
<g id="Ellipse_2">
<ellipse cx="1.82494" cy="1.72222" rx="1.82494" ry="1.72222" transform="translate(26.3169 60.1104)" fill="white"/>
</g>
<g id="Ellipse_3">
<ellipse cx="1.82494" cy="1.72222" rx="1.82494" ry="1.72222" transform="translate(19.9302 60.1104)" fill="white"/>
</g>
</g>
<g id="Group_2">
<g id="Rectangle 3_2">
<rect width="97.6341" height="18.0833" rx="4" transform="translate(0.767578 26.5273)" />
</g>
<g id="Ellipse_4">
<ellipse cx="3.64987" cy="3.44444" rx="3.64987" ry="3.44444" transform="translate(8.98096 32.5557)" fill="white"/>
</g>
<g id="Ellipse_5">
<ellipse cx="1.82494" cy="1.72222" rx="1.82494" ry="1.72222" transform="translate(26.3169 34.2773)" fill="white"/>
</g>
<g id="Ellipse_6">
<ellipse cx="1.82494" cy="1.72222" rx="1.82494" ry="1.72222" transform="translate(19.9302 34.2773)" fill="white"/>
</g>
</g>
<g id="Rectangle 3_3">
<rect width="97.6341" height="18.0833" rx="4" transform="translate(0.767578 0.694336)" />
</g>
<g id="Ellipse_7">
<ellipse cx="3.64987" cy="3.44444" rx="3.64987" ry="3.44444" transform="translate(8.98096 6.72266)" fill="white"/>
</g>
<g id="Ellipse_8">
<ellipse cx="1.82494" cy="1.72222" rx="1.82494" ry="1.72222" transform="translate(26.3169 8.44434)" fill="white"/>
</g>
<g id="Ellipse_9">
<ellipse cx="1.82494" cy="1.72222" rx="1.82494" ry="1.72222" transform="translate(19.9302 8.44434)" fill="white"/>
</g>
</g>
</svg>

