<svg width="25" height="17" viewBox="0 0 25 17" version="1.1" xmlns="http://www.w3.org/2000/svg" xmlns:xlink="http://www.w3.org/1999/xlink">
<g id="Canvas" fill="none">
<g id="Vector">
<path d="M 0 13.5737C 0 11.9673 1.30225 10.665 2.90865 10.665L 19.8758 10.665C 20.679 10.665 21.3301 11.3162 21.3301 12.1194C 21.3301 12.9226 20.679 13.5737 19.8758 13.5737L 0 13.5737Z" transform="matrix(0.729564 -0.683912 0.729564 0.683912 0.012207 6.90723)" fill="#2F80ED"/>
<path d="M 0 13.5737L 0 1.45432C 0 0.651123 0.651123 0 1.45432 0C 2.25752 0 2.90865 0.651123 2.90865 1.45432L 2.90865 10.665C 2.90865 12.2714 1.6064 13.5737 0 13.5737Z" transform="matrix(0.729564 -0.683912 0.729564 0.683912 0.012207 6.90723)" fill="#2F80ED"/>
</g>
</g>
</svg>

