<svg viewBox="0 0 74 70" version="1.1" xmlns="http://www.w3.org/2000/svg" xmlns:xlink="http://www.w3.org/1999/xlink">
<g id="Canvas">
<g id="Vector">
<path fill-rule="evenodd" clip-rule="evenodd" d="M 1.81538 59.0067C -0.605133 61.2982 -0.605133 64.8787 1.81538 67.1702C 4.23589 69.4618 8.01793 69.4618 10.4384 67.1702C 12.859 64.8787 12.859 61.2982 10.4384 59.0067C 8.01793 56.7152 4.08461 56.7152 1.81538 59.0067ZM 6.05128 40.1016L 6.05128 45.8304C 10.5897 45.8304 15.2795 47.5491 18.759 50.8432C 22.2384 54.1372 24.0538 58.577 24.0538 63.0169L 30.1051 63.0169C 30.1051 57.1448 27.6846 51.2728 22.9949 46.833C 18.4564 42.25 12.2538 40.1016 6.05128 40.1016ZM 6.05128 20.0508L 6.05128 25.7796C 16.0359 25.7796 26.1718 29.5034 33.7359 36.6644C 41.4513 43.9686 45.2333 53.4211 45.2333 63.0169L 51.2846 63.0169C 51.2846 51.9889 46.8974 40.9609 37.9718 32.6542C 29.1974 24.2042 17.7 20.0508 6.05128 20.0508ZM 6.05128 0L 6.05128 5.58558C 21.482 5.58558 36.9128 11.1712 48.7128 22.3424C 60.5128 33.5135 66.4128 48.2652 66.4128 62.8736L 72.4641 62.8736C 72.6153 28.2144 42.8128 0 6.05128 0Z" transform="translate(0.851562 0.833008)" />
</g>
</g>
</svg>

