<svg viewBox="0 0 83 78" version="1.1" xmlns="http://www.w3.org/2000/svg" xmlns:xlink="http://www.w3.org/1999/xlink">
<g id="Canvas">
<g id="Vector">
<path fill-rule="evenodd" clip-rule="evenodd" d="M 75.2786 0L 6.84351 0C 3.07958 0 0 2.90625 0 6.45833L 0 51.6667C 0 55.2188 3.07958 58.125 6.84351 58.125L 27.374 58.125L 27.374 71.0417L 23.9523 71.0417C 22.0703 71.0417 20.5305 72.4948 20.5305 74.2708C 20.5305 76.0469 22.0703 77.5 23.9523 77.5L 58.1699 77.5C 60.0518 77.5 61.5916 76.0469 61.5916 74.2708C 61.5916 72.4948 60.0518 71.0417 58.1699 71.0417L 54.7481 71.0417L 54.7481 58.125L 75.2786 58.125C 79.0426 58.125 82.1221 55.2188 82.1221 51.6667L 82.1221 6.45833C 82.1221 2.90625 79.0426 0 75.2786 0ZM 75.2786 45.2083L 6.84351 45.2083L 6.84351 6.45833L 75.2786 6.45833L 75.2786 45.2083Z" transform="translate(0.548828 0.25)"/>
</g>
</g>
</svg>

