<svg width="16" height="16" viewBox="0 0 16 16" version="1.1" xmlns="http://www.w3.org/2000/svg" xmlns:xlink="http://www.w3.org/1999/xlink">
<g id="Vector">
<path fill-rule="evenodd" clip-rule="evenodd" d="M 10.7223 9.73333C 11.5574 8.7 12.0251 7.4 12.0251 6C 12.0251 2.7 9.31942 0 6.01253 0C 2.70564 0 0 2.7 0 6C 0 9.3 2.70564 12 6.01253 12C 7.41545 12 8.71816 11.5 9.75365 10.7L 15.0647 16L 16 15.0667L 10.7223 9.73333ZM 6.01253 10.6667C 3.4405 10.6667 1.33612 8.56667 1.33612 6C 1.33612 3.43333 3.4405 1.33333 6.01253 1.33333C 8.58455 1.33333 10.6889 3.43333 10.6889 6C 10.6889 8.56667 8.58455 10.6667 6.01253 10.6667Z"/>
</g>
</g>
</svg>

