<svg width="32" height="32" viewBox="0 0 32 32" version="1.1" xmlns="http://www.w3.org/2000/svg" xmlns:xlink="http://www.w3.org/1999/xlink">
<path d="M 15.7986 -1.34867e-07C 7.08727 -1.34867e-07 -1.35944e-07 7.03115 -1.35944e-07 15.6735C -1.35944e-07 24.3158 7.08727 31.3469 15.7986 31.3469C 24.5099 31.3469 31.5971 24.3158 31.5971 15.6735C 31.5971 7.03115 24.5099 -1.34867e-07 15.7986 -1.34867e-07ZM 19.7275 16.2253L 17.1572 16.2253C 17.1572 20.2992 17.1572 25.3152 17.1572 25.3152L 13.3485 25.3152C 13.3485 25.3152 13.3485 20.3479 13.3485 16.2253L 11.5381 16.2253L 11.5381 13.013L 13.3485 13.013L 13.3485 10.9353C 13.3485 9.44727 14.0613 7.12207 17.1922 7.12207L 20.0133 7.1328L 20.0133 10.251C 20.0133 10.251 18.2982 10.251 17.9648 10.251C 17.6313 10.251 17.1579 10.4164 17.1579 11.126L 17.1579 13.0137L 20.0597 13.0137L 19.7275 16.2253Z" transform="translate(0.402832 0.653076)" fill="#3B5998"/>
</svg>

