<svg width="32" height="32" viewBox="0 0 32 32" version="1.1" xmlns="http://www.w3.org/2000/svg" xmlns:xlink="http://www.w3.org/1999/xlink">
<path fill="#E52D27" fill-rule="evenodd" clip-rule="evenodd" d="M 20.8157 19.5082C 20.6693 19.5082 20.5639 19.549 20.4997 19.6357C 20.436 19.7172 20.4049 19.8572 20.4049 20.0516L 20.4049 20.5197L 21.2175 20.5197L 21.2175 20.0516C 21.2175 19.8572 21.1848 19.7172 21.12 19.6357C 21.059 19.549 20.9552 19.5082 20.8157 19.5082ZM 17.6465 19.4921C 17.7697 19.4921 17.8661 19.5318 17.9329 19.6122C 17.9977 19.6927 18.0304 19.8123 18.0304 19.9685L 18.0304 22.3634C 18.0304 22.5128 18.0025 22.6179 17.9498 22.6826C 17.8971 22.749 17.815 22.7814 17.7023 22.7814C 17.6243 22.7814 17.5511 22.7641 17.4806 22.7312C 17.4095 22.6988 17.3363 22.6419 17.262 22.5677L 17.262 19.678C 17.3247 19.6143 17.3879 19.5668 17.4516 19.5365C 17.5153 19.5056 17.5801 19.4921 17.6465 19.4921ZM 20.4054 21.2417L 20.4054 22.1153C 20.4054 22.3598 20.4354 22.529 20.4949 22.6241C 20.5571 22.7187 20.6598 22.7647 20.8067 22.7647C 20.9589 22.7647 21.0653 22.725 21.1258 22.645C 21.1859 22.5651 21.218 22.3896 21.218 22.1158L 21.218 21.9042L 22.1633 21.9042L 22.1633 22.1424C 22.1633 22.6184 22.049 22.9763 21.8173 23.2182C 21.5882 23.458 21.2438 23.5771 20.7862 23.5771C 20.3749 23.5771 20.05 23.4506 19.8135 23.1952C 19.5776 22.9413 19.4575 22.5907 19.4575 22.143L 19.4575 20.0605C 19.4575 19.6592 19.5886 19.3301 19.8483 19.0772C 20.1079 18.8238 20.4423 18.6974 20.8546 18.6974C 21.2754 18.6974 21.5987 18.815 21.8252 19.0495C 22.0511 19.2836 22.1633 19.6206 22.1633 20.0605L 22.1633 21.2433L 20.4054 21.2433L 20.4054 21.2417ZM 18.7597 23.2464C 18.617 23.4219 18.4074 23.5081 18.1346 23.5081C 17.954 23.5081 17.7944 23.4757 17.6544 23.4078C 17.5138 23.3404 17.3811 23.237 17.2615 23.0938L 17.2615 23.4496L 16.3326 23.4496L 16.3326 17.1635L 17.2615 17.1635L 17.2615 19.188C 17.3863 19.0469 17.5169 18.9383 17.6554 18.8656C 17.796 18.7914 17.9366 18.7554 18.0793 18.7554C 18.3711 18.7554 18.5928 18.8541 18.7455 19.0506C 18.9003 19.2486 18.9762 19.538 18.9762 19.9178L 18.9762 22.4914C 18.9762 22.8195 18.904 23.0708 18.7597 23.2464ZM 14.7232 23.4496L 14.7232 22.9397C 14.5521 23.1283 14.3767 23.272 14.1918 23.3691C 14.0081 23.4689 13.8306 23.5165 13.6579 23.5165C 13.4446 23.5165 13.2866 23.4491 13.1771 23.3096C 13.0712 23.1706 13.0164 22.9658 13.0164 22.6884L 13.0164 18.8108L 13.9349 18.8108L 13.9349 22.3681C 13.9349 22.4784 13.9543 22.5573 13.9912 22.6069C 14.0318 22.6565 14.0944 22.6806 14.1797 22.6806C 14.2471 22.6806 14.3335 22.6482 14.4367 22.5823C 14.5405 22.517 14.6342 22.4345 14.7222 22.3342L 14.7222 18.8108L 15.6406 18.8108L 15.6406 23.4491L 14.7232 23.4496ZM 11.5414 18.0767L 11.5414 23.4496L 10.505 23.4496L 10.505 18.0767L 9.43385 18.0767L 9.43385 17.1635L 12.6125 17.1635L 12.6125 18.0767L 11.5414 18.0767ZM 15.7954 15.1395C 15.7954 15.1395 22.157 15.1489 22.9121 15.8971C 23.6699 16.6468 23.6784 20.3452 23.6784 20.3666C 23.6784 20.3666 23.672 24.0849 22.9121 24.8367C 22.157 25.5838 15.7954 25.6 15.7954 25.6C 15.7954 25.6 9.43437 25.5838 8.67762 24.8362C 7.92035 24.0865 7.91877 20.3943 7.91877 20.3661C 7.91877 20.3447 7.92087 16.6463 8.67762 15.8966C 9.4349 15.1489 15.7954 15.1395 15.7954 15.1395ZM 20.812 13.1944L 19.7766 13.1944L 19.7766 12.6302C 19.5881 12.8376 19.389 12.9975 19.1816 13.1051C 18.9751 13.2138 18.7755 13.2681 18.5812 13.2681C 18.34 13.2681 18.1615 13.1918 18.0404 13.0398C 17.9198 12.8878 17.8587 12.66 17.8587 12.3549L 17.8587 8.08542L 18.8919 8.08542L 18.8919 12.0022C 18.8919 12.1229 18.9156 12.2107 18.9588 12.2645C 19.0009 12.3188 19.0725 12.346 19.1689 12.346C 19.2442 12.346 19.3411 12.3099 19.4575 12.2384C 19.5734 12.1668 19.6803 12.0754 19.7761 11.963L 19.7761 8.08542L 20.8114 8.08542L 20.812 13.1944ZM 15.1914 12.3235C 15.2646 12.4003 15.3699 12.4379 15.5073 12.4379C 15.6474 12.4379 15.758 12.3988 15.8412 12.3214C 15.9239 12.242 15.965 12.1344 15.965 11.9986L 15.965 9.21548C 15.965 9.10367 15.9228 9.01329 15.8381 8.94433C 15.7538 8.87589 15.6432 8.84193 15.5073 8.84193C 15.3804 8.84193 15.2783 8.87589 15.1987 8.94433C 15.1208 9.01329 15.0803 9.10367 15.0803 9.21548L 15.0803 11.9986C 15.0803 12.1381 15.1182 12.2457 15.1914 12.3235ZM 14.4336 8.30851C 14.7116 8.07393 15.0871 7.95638 15.5563 7.95638C 15.9839 7.95638 16.3357 8.0802 16.6101 8.32784C 16.8823 8.57496 17.0193 8.89365 17.0193 9.28287L 17.0193 11.9218C 17.0193 12.3585 16.885 12.7007 16.618 12.9499C 16.3478 13.1986 15.9797 13.323 15.5089 13.323C 15.0571 13.323 14.6942 13.1944 14.422 12.9384C 14.1518 12.6814 14.0154 12.3361 14.0154 11.9019L 14.0154 9.25414C 14.0149 8.8576 14.1539 8.54256 14.4336 8.30851ZM 11.197 6.26939L 10.0231 6.26939L 11.4102 10.4505L 11.4102 13.1944L 12.5757 13.1944L 12.5757 10.321L 13.9312 6.26939L 12.7463 6.26939L 12.0269 9.03732L 11.9537 9.03732L 11.197 6.26939ZM 15.7986 31.3469C 7.07354 31.3469 0 24.3294 0 15.6735C 0 7.01701 7.07354 0 15.7986 0C 24.5236 0 31.5971 7.01701 31.5971 15.6735C 31.5971 24.3294 24.5236 31.3469 15.7986 31.3469Z"/>
</svg>

