<svg width="33" height="32" viewBox="0 0 33 32" version="1.1" xmlns="http://www.w3.org/2000/svg" xmlns:xlink="http://www.w3.org/1999/xlink">
<path fill-rule="evenodd" clip-rule="evenodd" d="M 17.993 9.55194C 16.6138 10.0498 15.7422 11.334 15.8412 12.7394L 15.8744 13.2817L 15.3225 13.2153C 13.3145 12.9609 11.5598 12.0978 10.07 10.6475L 9.34169 9.9281L 9.15421 10.4594C 8.75714 11.6438 9.01097 12.8946 9.83829 13.7357C 10.2796 14.2007 10.1801 14.267 9.4191 13.9901C 9.15421 13.9018 8.9225 13.8355 8.90038 13.8684C 8.8235 13.9463 9.08786 14.953 9.29745 15.3516C 9.58446 15.9054 10.169 16.4472 10.8094 16.7685L 11.3502 17.023L 10.7104 17.0339C 10.0926 17.0339 10.0705 17.0449 10.1369 17.2779C 10.3575 17.9973 11.2291 18.7611 12.2002 19.0934L 12.8843 19.3254L 12.2886 19.6796C 11.406 20.1895 10.3686 20.4769 9.33116 20.4983C 8.83403 20.5093 8.4259 20.5537 8.4259 20.5871C 8.4259 20.6973 9.77246 21.317 10.5555 21.5609C 12.9058 22.2804 15.698 21.97 17.7944 20.7417C 19.2843 19.8672 20.7735 18.1295 21.4692 16.4467C 21.8447 15.5507 22.2196 13.9123 22.2196 13.1271C 22.2196 12.6177 22.2528 12.5513 22.8705 11.9427C 23.2349 11.5884 23.5767 11.2013 23.6431 11.0905C 23.7537 10.88 23.7421 10.88 23.1796 11.0681C 22.2417 11.4004 22.109 11.356 22.573 10.8581C 22.9148 10.5038 23.3234 9.86175 23.3234 9.67367C 23.3234 9.64075 23.1581 9.69561 22.9701 9.7954C 22.7715 9.90616 22.3302 10.0723 21.999 10.1716L 21.4034 10.3602L 20.8625 9.99445C 20.5645 9.7954 20.1458 9.57388 19.9246 9.50753C 19.3617 9.35288 18.5006 9.37483 17.993 9.55194ZM 15.7986 31.3469C 7.07354 31.3469 0 24.3294 0 15.6735C 0 7.01701 7.07354 0 15.7986 0C 24.5236 0 31.5971 7.01701 31.5971 15.6735C 31.5971 24.3294 24.5236 31.3469 15.7986 31.3469Z" transform="translate(0.881348 0)" fill="#56CCF2"/>
</svg>

