<svg width="32" height="32" viewBox="0 0 32 32" version="1.1" xmlns="http://www.w3.org/2000/svg" xmlns:xlink="http://www.w3.org/1999/xlink">
<path fill-rule="evenodd" clip-rule="evenodd" d="M 24.6652 23.0593L 24.6652 16.9404C 24.6652 13.662 22.9011 12.1365 20.5492 12.1365C 18.6513 12.1365 17.8008 13.1725 17.3268 13.8992L 17.3268 12.3873L 13.7511 12.3873C 13.7985 13.3888 13.7511 23.0593 13.7511 23.0593L 17.3268 23.0593L 17.3268 17.0992C 17.3268 16.7811 17.35 16.4624 17.4448 16.2346C 17.7028 15.5972 18.291 14.9373 19.2785 14.9373C 20.5729 14.9373 21.09 15.9159 21.09 17.35L 21.09 23.0599L 24.6652 23.0599L 24.6652 23.0593ZM 9.98416 10.9307C 11.2307 10.9307 12.0074 10.1104 12.0074 9.08591C 11.9843 8.03945 11.2307 7.24271 10.0079 7.24271C 8.78505 7.24271 7.98512 8.03892 7.98512 9.08591C 7.98512 10.1104 8.76136 10.9307 9.96152 10.9307L 9.98416 10.9307ZM 15.7986 31.3469C 7.07354 31.3469 0 24.3294 0 15.6735C 0 7.01701 7.07354 0 15.7986 0C 24.5236 0 31.5971 7.01701 31.5971 15.6735C 31.5971 24.3294 24.5236 31.3469 15.7986 31.3469ZM 11.772 23.0593L 11.772 12.3873L 8.19682 12.3873L 8.19682 23.0593L 11.772 23.0593Z" transform="translate(0.359863 0)" fill="#0077B5"/>
</svg>

