<svg width="32" height="32" viewBox="0 0 32 32" version="1.1" xmlns="http://www.w3.org/2000/svg" xmlns:xlink="http://www.w3.org/1999/xlink">
<path fill-rule="evenodd" clip-rule="evenodd" d="M 15.2525 16.197C 16.0998 15.3569 16.1656 14.1881 16.1656 13.5314C 16.1656 10.8925 14.591 6.8049 11.5335 6.8049C 10.5803 6.8049 9.54812 7.28033 8.95304 8.01175C 8.33111 8.77871 8.14574 9.76353 8.14574 10.7086C 8.14574 13.1641 9.57498 17.221 12.7515 17.221C 13.6647 17.221 14.6574 16.7743 15.2525 16.197ZM 0 15.6735C 0 19.5422 1.41292 23.0839 3.75426 25.8168C 4.1961 25.0802 4.88123 24.3555 5.8955 23.7599C 8.18523 22.3681 11.2691 22.1837 12.9364 22.0787C 12.4203 21.422 11.8247 20.7261 11.8247 19.5845C 11.8247 18.967 12.0101 18.5997 12.1954 18.1661C 11.7852 18.2058 11.3881 18.245 11.0174 18.245C 7.11304 18.245 4.90282 15.3563 4.90282 12.5069C 4.90282 10.8262 5.6838 8.95896 7.25839 7.6079C 9.36275 5.89218 11.8642 5.59909 13.8495 5.59909L 21.4334 5.59909L 19.0773 6.91357L 16.8012 6.91357C 17.6475 7.6079 19.4085 9.06971 19.4085 11.8502C 19.4085 14.5554 17.8597 15.8286 16.3247 17.036C 15.8349 17.5094 15.2925 18.0214 15.2925 18.8217C 15.2925 19.6227 15.8349 20.0699 16.2457 20.398L 17.5691 21.422C 19.1974 22.7615 20.6661 24.0086 20.6661 26.53C 20.6661 28.1924 19.8846 29.8611 18.36 31.1411C 17.5401 31.2743 16.6996 31.3438 15.8423 31.3464C 17.3895 30.673 18.1915 29.4416 18.1915 27.9609C 18.1915 26.0969 16.9871 25.112 14.1813 23.1293C 13.8901 23.1027 13.7047 23.1027 13.3345 23.1027C 13.0038 23.1027 11.0184 23.169 9.47018 23.6805C 8.66288 23.9694 6.30731 24.8492 6.30731 27.4489C 6.30731 27.7316 6.33786 28.0054 6.39684 28.2687C 2.5146 25.4145 0 20.8353 0 15.6735ZM 30.4017 9.68202C 30.6334 10.2374 30.8341 10.81 31.0015 11.3962C 30.8346 10.81 30.6339 10.2379 30.4017 9.68202ZM 15.7986 31.3469C 7.07354 31.3469 0 24.3294 0 15.6735C 0 7.01701 7.07354 0 15.7986 0C 22.385 0 28.0303 3.9983 30.4017 9.68202L 27.2599 9.68202L 27.2599 5.59961L 25.4962 5.59961L 25.4962 9.68202L 21.3812 9.68202L 21.3812 11.3962L 25.4962 11.3962L 25.4962 15.5141L 27.2599 15.5141L 27.2599 11.3962L 31.001 11.3962C 31.3891 12.7556 31.5971 14.1908 31.5971 15.6735C 31.5971 24.3294 24.5236 31.3469 15.7986 31.3469Z" transform="translate(0.179932 0)" fill="#EB5757"/>
</svg>

