<svg width="249" height="190" viewBox="0 0 249 190" version="1.1" xmlns="http://www.w3.org/2000/svg" xmlns:xlink="http://www.w3.org/1999/xlink">
<g id="Canvas" fill="none">
<g id="Vector">
<path fill-rule="evenodd" clip-rule="evenodd" d="M 95 0C 42.3542 0 0 42.3542 0 95C 0 147.646 42.3542 190 95 190C 147.646 190 190 147.646 190 95C 190 42.3542 147.646 0 95 0ZM 95 174.167C 51.4583 174.167 15.8333 138.542 15.8333 95C 15.8333 51.4583 51.4583 15.8333 95 15.8333C 138.542 15.8333 174.167 51.4583 174.167 95C 174.167 138.542 138.542 174.167 95 174.167ZM 126.667 87.0833L 102.917 87.0833L 102.917 47.5C 102.917 43.1458 99.3542 39.5833 95 39.5833C 90.6458 39.5833 87.0833 43.1458 87.0833 47.5L 87.0833 95C 87.0833 99.3542 90.6458 102.917 95 102.917L 126.667 102.917C 131.021 102.917 134.583 99.3542 134.583 95C 134.583 90.6458 131.021 87.0833 126.667 87.0833Z" transform="translate(58.9995 0.000488281)" fill="url(#paint0_linear)" stroke="#F2F2F2" stroke-width="2px"/>
<path fill-rule="evenodd" clip-rule="evenodd" d="M 95 0C 42.3542 0 0 42.3542 0 95C 0 147.646 42.3542 190 95 190C 147.646 190 190 147.646 190 95C 190 42.3542 147.646 0 95 0ZM 95 174.167C 51.4583 174.167 15.8333 138.542 15.8333 95C 15.8333 51.4583 51.4583 15.8333 95 15.8333C 138.542 15.8333 174.167 51.4583 174.167 95C 174.167 138.542 138.542 174.167 95 174.167ZM 126.667 87.0833L 102.917 87.0833L 102.917 47.5C 102.917 43.1458 99.3542 39.5833 95 39.5833C 90.6458 39.5833 87.0833 43.1458 87.0833 47.5L 87.0833 95C 87.0833 99.3542 90.6458 102.917 95 102.917L 126.667 102.917C 131.021 102.917 134.583 99.3542 134.583 95C 134.583 90.6458 131.021 87.0833 126.667 87.0833Z" transform="translate(58.9995 0.000488281)" fill="url(#paint1_linear)" />
</g>
<g id="Vector_2">
<path fill-rule="evenodd" clip-rule="evenodd" d="M 95 0C 42.3542 0 0 42.3542 0 95C 0 147.646 42.3542 190 95 190C 147.646 190 190 147.646 190 95C 190 42.3542 147.646 0 95 0ZM 95 174.167C 51.4583 174.167 15.8333 138.542 15.8333 95C 15.8333 51.4583 51.4583 15.8333 95 15.8333C 138.542 15.8333 174.167 51.4583 174.167 95C 174.167 138.542 138.542 174.167 95 174.167ZM 126.667 87.0833L 102.917 87.0833L 102.917 47.5C 102.917 43.1458 99.3542 39.5833 95 39.5833C 90.6458 39.5833 87.0833 43.1458 87.0833 47.5L 87.0833 95C 87.0833 99.3542 90.6458 102.917 95 102.917L 126.667 102.917C 131.021 102.917 134.583 99.3542 134.583 95C 134.583 90.6458 131.021 87.0833 126.667 87.0833Z" transform="translate(-0.000488281 0.000488281)" fill="url(#paint2_linear)"/>
</g>
</g>
<defs>

<linearGradient id="paint0_linear" x2="1" gradientUnits="userSpaceOnUse" gradientTransform="matrix(268.885 239.899 -239.899 119.504 90.2773 -73.2803)">
<stop stop-color="#EB5757"/>
<stop offset="1" stop-color="#2F80ED"/>
</linearGradient>
<linearGradient id="paint1_linear" x2="1" gradientUnits="userSpaceOnUse" gradientTransform="matrix(-155 -1.06254e-06 1.06254e-06 -155 259.5 165)">
<stop stop-color="white" stop-opacity="0"/>
<stop offset="1" stop-color="#F2F2F2"/>
</linearGradient>
<linearGradient id="paint2_linear" x2="1" gradientUnits="userSpaceOnUse" gradientTransform="matrix(268.885 239.899 -239.899 119.504 90.2773 -73.2803)">
<stop stop-color="#EB5757"/>
<stop offset="1" stop-color="#2F80ED"/>
</linearGradient>

</defs>
</svg>

