<svg width="232" height="156" viewBox="0 0 232 156" version="1.1" xmlns="http://www.w3.org/2000/svg" xmlns:xlink="http://www.w3.org/1999/xlink">
<g id="Canvas" fill="none">
<g id="Vector">
<path fill-rule="evenodd" clip-rule="evenodd" d="M 193.414 111.913C 187.626 109.006 172.673 101.255 160.615 95.441L 156.757 84.2981C 162.062 80.9068 165.921 75.5777 166.403 68.7951L 168.815 49.9007C 170.744 34.3976 160.133 19.8634 144.699 19.8634C 129.264 19.8634 119.135 34.3976 121.064 49.9007L 123.476 68.7951C 124.441 75.5777 128.299 80.9068 133.605 84.2981L 129.747 95.441C 129.264 95.9255 128.3 96.4099 127.335 96.4099C 140.84 103.192 154.828 110.46 161.098 113.366C 174.121 120.149 174.121 132.745 174.121 132.745L 174.121 136.137L 203.06 136.137L 203.06 126.447C 203.06 126.447 203.06 116.758 193.414 111.913ZM 141.805 123.056C 134.088 119.18 113.83 109.006 98.3952 101.255L 93.572 86.2361C 100.325 81.8758 105.63 74.6087 106.595 65.4037L 109.488 40.2112C 111.9 19.3789 97.9127 -2.95698e-05 77.6549 -2.95698e-05C 57.3971 -2.95698e-05 43.4097 19.3789 45.8213 40.2112L 48.7152 65.4037C 49.6798 74.1242 54.9855 81.3914 61.7381 86.2361L 56.9148 101.255C 40.998 109.006 20.7402 119.18 13.5053 123.056C 0.964716 129.354 0.000117756 142.919 0.000117756 142.919L 0.000117756 156L 154.345 156L 154.345 142.919C 154.828 142.435 154.828 129.838 141.805 123.056ZM 225.247 100.77C 221.389 98.8324 211.26 93.9875 203.542 89.6273L 201.131 82.3602C 204.507 79.9379 207.401 76.5465 207.884 72.1863L 209.331 59.5901C 210.778 49.4162 203.543 39.7267 193.414 39.7267C 183.285 39.7267 176.05 49.4162 177.497 59.5901L 178.944 72.1863C 179.426 76.5465 181.838 80.4223 185.697 82.3602L 183.767 87.6894C 194.861 93.0186 207.401 99.8012 212.707 102.224C 222.353 107.068 222.353 116.758 222.353 116.758L 232 116.758L 232 110.46C 232 110.46 232 103.677 225.247 100.77Z" fill="url(#paint0_linear)"/>
</g>
</g>
<defs>

<linearGradient id="paint0_linear" x2="1" gradientUnits="userSpaceOnUse" gradientTransform="matrix(328.322 196.97 -292.93 98.1193 110.233 -60.167)">
<stop stop-color="#EB5757"/>
<stop offset="1" stop-color="#2F80ED" stop-opacity="0.3"/>
</linearGradient>

</defs>
</svg>

